PathFileType	4	(X/Y/Z)	C:/Users/opensim2020/Desktop/walking_exp_matlab/subject03_walking12_straight_04.trc																																																																																																																																														
DataRate	CameraRate	NumFrames	NumMarkers	Units	OrigDataRate	OrigDataStartFrame	OrigNumFrames																																																																																																																																										
100	100	7	48	mm	100	2171	202																																																																																																																																										
Frame#	Time	LFHD			RFHD			LBHD			RBHD			C7			T10			CLAV			STRN			RBAK			LSHO			LUPA			LELB			LFRM			LWRA			LWRB			LFIN			RSHO			RUPA			RELB			RFRM			RWRA			RWRB			RFIN			LASI			RASI			LPSI			RPSI			LTHI			LKNE			LTIB			LANK			LHEE			LTOE			RTHI			RKNE			RTIB			RANK			RHEE			RTOE			*39			*40			*41			*42			*43			*44			*45			*46			*47		
		X1	Y1	Z1	X2	Y2	Z2	X3	Y3	Z3	X4	Y4	Z4	X5	Y5	Z5	X6	Y6	Z6	X7	Y7	Z7	X8	Y8	Z8	X9	Y9	Z9	X10	Y10	Z10	X11	Y11	Z11	X12	Y12	Z12	X13	Y13	Z13	X14	Y14	Z14	X15	Y15	Z15	X16	Y16	Z16	X17	Y17	Z17	X18	Y18	Z18	X19	Y19	Z19	X20	Y20	Z20	X21	Y21	Z21	X22	Y22	Z22	X23	Y23	Z23	X24	Y24	Z24	X25	Y25	Z25	X26	Y26	Z26	X27	Y27	Z27	X28	Y28	Z28	X29	Y29	Z29	X30	Y30	Z30	X31	Y31	Z31	X32	Y32	Z32	X33	Y33	Z33	X34	Y34	Z34	X35	Y35	Z35	X36	Y36	Z36	X37	Y37	Z37	X38	Y38	Z38	X39	Y39	Z39	X40	Y40	Z40	X41	Y41	Z41	X42	Y42	Z42	X43	Y43	Z43	X44	Y44	Z44	X45	Y45	Z45	X46	Y46	Z46	X47	Y47	Z47	X48	Y48	Z48
																																																																																																																																																	
26	0.25	-1197.91101	1613.69446	-1434.5332	-1219.55774	1610.94482	-1303.31323	-1326.12537	1573.95544	-1453.5376	-1342.31433	1570.54028	-1323.28149	-1366.78101	1406.55212	-1397.4823	-1393.62036	1091.85437	-1406.42529	-1244.69006	1332.47827	-1388.91626	-1193.53516	1169.75366	-1397.77808	-1417.40344	1223.88	-1311.95581	-1278.02673	1378.10803	-1543.83337	-1261.40723	1197.84631	-1640.36829	-1225.94446	1089.90332	-1669.00146	-1120.4176	1027.85327	-1662.98914	-1019.97168	979.98706	-1621.24451	-1032.96936	955.008	-1667.75439	-953.89288	938.53436	-1655.41748	-1302.58557	1353.4469	-1233.39929	-1330.32874	1134.07288	-1157.67505	-1333.17761	1021.13055	-1142.16455	-1349.37634	884.89502	-1133.28418	-1344.07739	782.22998	-1162.25574	-1376.72815	788.25159	-1118.68616	-1383.09399	711.41687	-1130.37524	-1230.26379	924.78375	-1524.08533	-1219.91785	937.78577	-1286.2533	-1390.32373	947.11401	-1467.21692	-1383.31006	961.52887	-1319.6958	-1305.42078	621.64172	-1580.46045	-1317.57727	441.71335	-1567.26367	-1485.25061	335.10086	-1560.07263	-1648.93494	214.06792	-1518.81079	-1684.95947	237.33276	-1472.07849	-1635.40625	63.49471	-1508.13867	-1215.42554	646.62903	-1248.03491	-1156.17419	481.83005	-1300.93127	-1178.13562	287.07401	-1294.67249	-1196.2439	72.82292	-1341.02063	-1246.62769	40.74342	-1387.54614	-1059.021	37.90054	-1368.52686	NaN	NaN	NaN	-1286.30737	1673.18982	-1395.75647	NaN	NaN	NaN	NaN	NaN	NaN	NaN	NaN	NaN	NaN	NaN	NaN	NaN	NaN	NaN	NaN	NaN	NaN	NaN	NaN	NaN
27	0.26	-1184.4231	1615.11365	-1436.14978	-1205.87	1612.96533	-1304.95251	-1312.422	1575.09448	-1454.4082	-1328.63232	1572.42944	-1324.48926	-1353.10132	1408.5719	-1397.84595	-1380.00427	1093.52869	-1406.29639	-1231.13623	1334.06726	-1389.97095	-1179.96277	1171.276	-1399.04285	-1403.29578	1225.70142	-1311.25574	-1265.29895	1379.03467	-1545.13818	-1251.28821	1197.49365	-1640.36047	-1217.37109	1088.80884	-1668.21338	-1112.67493	1025.49976	-1661.74756	-1012.80121	976.63989	-1619.7616	-1026.04895	951.78741	-1666.35156	-947.19031	934.13849	-1653.54431	-1287.69434	1354.76013	-1233.96375	-1313.77698	1135.33032	-1158.20337	-1315.91052	1022.10712	-1142.93262	-1330.60938	885.74048	-1134.48621	-1325.05298	782.89862	-1164.63135	-1356.67358	788.73529	-1120.21533	-1362.36511	712.06903	-1132.05237	-1217.43604	925.77716	-1524.92517	-1206.38672	939.27362	-1286.52429	-1377.4292	947.46515	-1467.974	-1369.78137	962.94006	-1320.38062	-1285.58142	621.8501	-1580.87756	-1290.07227	441.36801	-1567.62195	-1457.8584	336.61014	-1560.14185	-1624.26843	219.3943	-1517.30408	-1661.87561	242.77904	-1471.73511	-1608.89368	69.04243	-1505.82019	-1205.05823	647.60162	-1248.53735	-1149.45764	481.21341	-1300.98499	-1174.63135	286.875	-1294.84497	-1196.22839	72.86375	-1341.0603	-1246.61743	40.77948	-1387.47681	-1058.9635	37.87437	-1368.50049	NaN	NaN	NaN	-1272.78015	1674.39917	-1396.56091	NaN	NaN	NaN	NaN	NaN	NaN	NaN	NaN	NaN	NaN	NaN	NaN	NaN	NaN	NaN	NaN	NaN	NaN	NaN	NaN	NaN
28	0.27	-1170.90417	1616.52112	-1437.84167	-1192.17822	1614.98596	-1306.57483	-1299.1886	1576.5542	-1456.10278	-1314.83728	1574.27722	-1325.68274	-1339.26379	1410.57239	-1397.97839	-1366.57227	1095.18323	-1406.36841	-1217.5791	1335.68213	-1391.12708	-1166.56104	1172.74902	-1400.34082	-1389.29968	1227.65149	-1310.4502	-1252.65698	1380.00037	-1546.31348	-1241.2843	1197.40332	-1640.39648	-1208.88489	1087.66809	-1667.27405	-1105.23584	1022.84015	-1660.49084	-1005.9682	972.44873	-1618.45081	-1019.70941	947.85919	-1665.09363	-941.15118	928.63367	-1652.01855	-1273.17859	1356.58777	-1234.74219	-1296.85474	1136.48169	-1158.80066	-1298.3374	1023.29193	-1143.81299	-1311.49255	886.79199	-1135.68604	-1303.38635	784.57043	-1166.11145	-1336.16296	789.36371	-1121.72961	-1340.8418	712.73218	-1133.73389	-1204.9375	926.97314	-1526.01758	-1192.99048	940.75031	-1287.03333	-1364.56665	948.12817	-1468.61389	-1356.43481	964.55286	-1321.06055	-1265.67969	622.85419	-1581.07263	-1262.75708	442.13165	-1567.672	-1430.53662	338.6897	-1559.54297	-1598.4895	223.60904	-1515.68701	-1638.0177	245.24339	-1471.17212	-1578.34229	73.03706	-1503.45374	-1195.48901	648.14935	-1249.22888	-1143.35645	480.40302	-1300.90271	-1171.27539	286.63989	-1294.64465	-1196.3136	72.89458	-1341.07361	-1246.72388	40.8101	-1387.28772	-1058.99939	37.87028	-1368.46313	NaN	NaN	NaN	-1259.02136	1675.97144	-1398.39673	NaN	NaN	NaN	NaN	NaN	NaN	NaN	NaN	NaN	NaN	NaN	NaN	NaN	NaN	NaN	NaN	NaN	NaN	NaN	NaN	NaN
29	0.28	-1157.34314	1617.9353	-1439.50293	-1178.31567	1616.97827	-1308.18921	-1285.63586	1577.89917	-1457.32849	-1301.20056	1576.26794	-1327.01318	-1325.64319	1412.48877	-1398.23206	-1353.28479	1096.90833	-1406.5343	-1204.09119	1337.3678	-1392.34204	-1153.26013	1174.36926	-1401.79553	-1375.18115	1229.33838	-1309.68628	-1240.14526	1381.06909	-1547.54187	-1231.328	1197.35498	-1640.2312	-1200.47424	1086.67737	-1666.23523	-1097.82898	1019.8233	-1659.11926	-999.51892	967.57843	-1617.34473	-1013.89569	943.2757	-1664.10095	-935.78571	922.10077	-1650.83472	-1258.17407	1358.00293	-1235.45251	-1279.74402	1137.81042	-1159.51111	-1280.36475	1024.52161	-1144.90686	-1291.84045	887.83978	-1137.09863	-1283.7644	785.77277	-1167.97461	-1315.11121	790.1474	-1123.27551	-1318.52454	713.54022	-1135.34656	-1192.40527	928.65552	-1527.01465	-1179.55859	942.08771	-1287.83533	-1351.63562	949.28589	-1469.03638	-1343.08069	966.36523	-1321.49219	-1245.12683	624.45996	-1581.26074	-1235.52319	443.88824	-1567.45654	-1402.3689	340.30112	-1558.22986	-1571.1189	225.71448	-1513.88257	-1612.51099	245.35323	-1470.52588	-1545.30933	75.45321	-1500.80493	-1186.1908	648.63666	-1249.79993	-1137.59558	479.66907	-1300.94189	-1168.53113	286.34866	-1294.59302	-1196.53552	73.05344	-1341.0033	-1246.875	40.83942	-1387.10632	-1059.09644	37.88906	-1368.39026	NaN	NaN	NaN	-1245.28601	1677.59094	-1400.19812	NaN	NaN	NaN	NaN	NaN	NaN	NaN	NaN	NaN	NaN	NaN	NaN	NaN	NaN	NaN	NaN	NaN	NaN	NaN	NaN	NaN
30	0.29	-1143.71863	1619.30469	-1441.14136	-1164.5188	1618.86743	-1309.83557	-1272.09668	1579.39075	-1458.64868	-1287.26978	1578.1803	-1328.11145	-1312.05151	1414.1875	-1398.53137	-1340.16357	1098.69153	-1406.76343	-1190.70081	1338.98975	-1393.63269	-1140.13062	1175.84656	-1403.17932	-1361.27026	1231.23267	-1309.3053	-1227.79773	1382.14099	-1548.72498	-1221.45166	1197.38855	-1640.00037	-1191.93787	1085.55603	-1664.94751	-1090.71765	1016.61133	-1657.8512	-993.54425	961.90454	-1616.46277	-1008.68622	938.12134	-1663.37524	-931.09088	914.54663	-1649.95239	-1243.45239	1359.76746	-1236.30347	-1262.59424	1139.21045	-1160.5968	-1262.09265	1025.86731	-1146.12988	-1271.80957	889.09003	-1138.6051	-1262.21472	787.2829	-1169.61194	-1293.52454	791.03766	-1124.9198	-1295.52771	714.46075	-1136.94824	-1180.00684	930.62433	-1528.03796	-1166.05615	943.40247	-1288.67334	-1338.6748	950.97797	-1469.15161	-1329.71301	968.23291	-1321.64526	-1224.34875	626.12524	-1580.79346	-1208.45776	446.18036	-1567.00391	-1374.3717	341.63907	-1557.75537	-1542.16333	225.16835	-1512.61292	-1585.39014	243.23878	-1469.78198	-1510.54993	75.822	-1498.03259	-1177.24707	649.06628	-1250.28381	-1132.2915	479.04898	-1301.099	-1165.76807	286.13086	-1294.66284	-1196.57043	73.08752	-1340.93164	-1247.00635	40.9061	-1386.9198	-1059.19434	37.90537	-1368.33301	NaN	NaN	NaN	-1231.49561	1679.53699	-1402.67883	NaN	NaN	NaN	NaN	NaN	NaN	NaN	NaN	NaN	NaN	NaN	NaN	NaN	NaN	NaN	NaN	NaN	NaN	NaN	NaN	NaN
31	0.3	-1130.07813	1620.66028	-1442.76257	-1150.60754	1620.6228	-1311.43396	-1258.55774	1580.96521	-1459.9397	-1273.60815	1580.22961	-1329.50562	-1298.77563	1415.95959	-1399.15747	-1327.1554	1100.46094	-1406.89014	-1177.3418	1340.61804	-1394.94568	-1127.0592	1177.44373	-1404.61096	-1347.43323	1233.07251	-1309.12903	-1215.58081	1383.32397	-1549.9917	-1211.41992	1197.18848	-1639.39893	-1183.64197	1084.81213	-1663.81982	-1083.93909	1013.07117	-1656.79565	-988.07336	955.62274	-1615.85828	-1004.03082	932.43671	-1662.93347	-927.16107	906.1377	-1649.44812	-1228.94043	1361.59546	-1237.31421	-1245.12622	1140.44788	-1161.75012	-1243.57336	1027.31128	-1147.49023	-1251.35278	890.40399	-1140.19177	-1240.6228	788.86273	-1171.77759	-1271.46252	791.99811	-1126.62085	-1272.00269	715.63086	-1138.61743	-1167.43518	932.88074	-1528.71655	-1152.59595	944.58887	-1289.56555	-1325.66455	952.98529	-1469.09717	-1316.3009	970.05359	-1321.58521	-1203.68347	628.10938	-1580.48645	-1181.75757	448.93225	-1566.35828	-1345.77649	341.63406	-1556.89868	-1511.7876	222.26775	-1511.10583	-1556.88794	238.72682	-1468.64954	-1474.06653	75.02841	-1495.68201	-1168.51526	649.58978	-1250.71899	-1127.57959	478.46246	-1301.17261	-1163.19775	286.01645	-1294.8606	-1196.39954	73.02499	-1341.16357	-1247.10486	40.9726	-1386.80493	-1059.28931	37.93251	-1368.29236	NaN	NaN	NaN	-1217.62671	1681.58362	-1405.4386	NaN	NaN	NaN	NaN	NaN	NaN	NaN	NaN	NaN	NaN	NaN	NaN	NaN	NaN	NaN	NaN	NaN	NaN	NaN	NaN	NaN
32	0.31	-1116.41797	1621.95264	-1444.41455	-1136.80103	1622.31104	-1313.05591	-1244.97131	1582.52026	-1461.34802	-1259.71729	1582.07764	-1330.71216	-1285.44006	1417.5531	-1399.79028	-1314.03601	1102.19067	-1406.83215	-1164.09448	1342.25708	-1396.28418	-1113.99341	1178.85535	-1406.0415	-1333.63989	1234.86646	-1309.07019	-1203.54907	1384.50952	-1551.3114	-1201.8042	1197.40625	-1639.2489	-1175.30579	1084.0332	-1662.53979	-1077.51428	1009.32642	-1655.94641	-983.03308	948.7489	-1615.47241	-1000.02753	926.25366	-1662.59778	-924.08838	897.04791	-1649.37891	-1214.19788	1363.1322	-1238.21704	-1227.71814	1141.88574	-1162.85974	-1224.8125	1028.78699	-1148.92969	-1230.50647	891.80652	-1141.90649	-1218.62939	790.66742	-1174.05127	-1248.94958	793.11328	-1128.43652	-1247.7915	716.87354	-1140.26929	-1154.76184	935.26489	-1529.26172	-1138.69067	945.7702	-1290.27527	-1312.66992	955.18591	-1468.95874	-1302.85938	971.7561	-1321.47327	-1183.51074	630.34375	-1580.26965	-1155.73706	452.12579	-1565.63879	-1316.7146	340.34827	-1555.7417	-1480.98413	218.19266	-1510.01855	-1527.45776	232.07983	-1467.48364	-1435.63977	73.37499	-1493.77026	-1160.05725	649.91913	-1251.29028	-1123.24402	477.81009	-1301.25671	-1161.06628	286.04526	-1295.14575	-1196.39941	73.06484	-1341.26538	-1247.11633	41.06368	-1386.81921	-1059.33398	37.9549	-1368.28711	NaN	NaN	NaN	-1203.51965	1683.53979	-1408.17432	NaN	NaN	NaN	NaN	NaN	NaN	NaN	NaN	NaN	NaN	NaN	NaN	NaN	NaN	NaN	NaN	NaN	NaN	NaN	NaN	NaN
